<svg width="24" height="24" viewBox="0 0 24 24" fill="none" xmlns="http://www.w3.org/2000/svg">
<path d="M10.9863 4.99078C11.5951 4.99083 12.1339 5.40099 12.3037 5.98102L12.8828 8.0025C13.3221 9.52297 14.4799 10.6934 15.9971 11.1236L18.0039 11.7037V11.6939C18.5826 11.8641 18.9922 12.4041 18.9922 13.0142C18.9922 13.6245 18.5821 14.1645 17.9932 14.3345L15.9873 14.9048C14.4702 15.345 13.3024 16.5055 12.873 18.0259L12.2939 20.0377C12.1242 20.6076 11.6051 20.9975 10.9766 20.9976C10.3478 20.9976 9.82798 20.6177 9.6582 20.0377L9.08008 18.0259C8.64081 16.5055 7.482 15.335 5.96484 14.9048L3.95898 14.3248C3.38008 14.1547 2.97078 13.6146 2.9707 13.0045C2.9707 12.3943 3.37995 11.8543 3.96875 11.6841L5.97559 11.1138C7.49275 10.6736 8.66064 9.51233 9.08984 7.99176L9.66895 5.98102C9.83877 5.40099 10.3776 4.99078 10.9863 4.99078ZM17.1445 3.44C17.3443 2.85009 18.1528 2.85007 18.3525 3.44C18.8017 4.80057 19.1708 5.17145 20.5283 5.62164C21.1173 5.82173 21.1173 6.63152 20.5283 6.8316C19.171 7.28174 18.8017 7.65203 18.3525 9.01227C18.1529 9.60251 17.3442 9.60251 17.1445 9.01227C16.6954 7.65204 16.326 7.28172 14.9688 6.8316C14.6793 6.74157 14.5293 6.49113 14.5293 6.23102C14.5295 5.97107 14.6794 5.72163 14.9688 5.62164C16.3262 5.17147 16.6954 4.80054 17.1445 3.44Z" fill="url(#paint0_linear_227_6400)"/>
<circle cx="10.9824" cy="12.9941" r="2" fill="white"/>
<circle cx="17.75" cy="6.22656" r="0.75" fill="white"/>
<defs>
<linearGradient id="paint0_linear_227_6400" x1="6.12488" y1="1.24999" x2="15.0002" y2="22.3748" gradientUnits="userSpaceOnUse">
<stop stop-color="#437FFF"/>
<stop offset="1" stop-color="#4AFFD5"/>
</linearGradient>
</defs>
</svg>
